<svg xmlns="http://www.w3.org/2000/svg" viewBox="0 0 43 43" width="43" height="43">
	<style>
		tspan { white-space:pre }
		.shp0 { fill: #000000 } 
		.shp1 { fill: #cdcdcd } 
	</style>
	<path id="Layer" class="shp0" d="M25.99,17.82h-3.16v-2.08c0,-0.78 0.52,-0.96 0.88,-0.96c0.36,0 2.23,0 2.23,0v-3.43l-3.08,-0.01c-3.41,0 -4.19,2.56 -4.19,4.19v2.28h-1.97v3.53h1.98c0,4.53 0,9.99 0,9.99h4.15c0,0 0,-5.51 0,-9.99h2.8z" />
	<path id="Layer" class="shp1" d="M25.99,17.82h-3.16v-2.08c0,-0.78 0.52,-0.96 0.88,-0.96c0.36,0 2.23,0 2.23,0v-3.43l-3.08,-0.01c-3.41,0 -4.19,2.56 -4.19,4.19v2.28h-1.97v3.53h1.98c0,4.53 0,9.99 0,9.99h4.15c0,0 0,-5.51 0,-9.99h2.8z" />
</svg>