<?xml version="1.0" encoding="utf-8"?>
<!-- Generator: Adobe Illustrator 17.0.0, SVG Export Plug-In . SVG Version: 6.00 Build 0)  -->
<!DOCTYPE svg PUBLIC "-//W3C//DTD SVG 1.1//EN" "http://www.w3.org/Graphics/SVG/1.1/DTD/svg11.dtd">
<svg version="1.1" id="Layer_1" xmlns="http://www.w3.org/2000/svg" xmlns:xlink="http://www.w3.org/1999/xlink" x="0px" y="0px"
	 width="42px" height="42px" viewBox="7.346 7.346 42 42" enable-background="new 7.346 7.346 42 42" xml:space="preserve">
<g>
	<path d="M33.41,24.707c-2.273,0-3.293,1.249-3.863,2.129v0.042h-0.028c0.01-0.012,0.021-0.028,0.028-0.042v-1.826H25.26
		c0.057,1.208,0,12.894,0,12.894h4.286v-7.202c0-0.387,0.028-0.768,0.141-1.045c0.311-0.768,1.016-1.57,2.199-1.57
		c1.553,0,2.173,1.184,2.173,2.917v6.899h4.286V30.51C38.345,26.548,36.229,24.707,33.41,24.707z"/>
	<path d="M20.773,18.79c-1.466,0-2.426,0.965-2.426,2.23c0,1.236,0.93,2.229,2.369,2.229h0.028c1.495,0,2.425-0.993,2.425-2.229
		C23.141,19.754,22.239,18.79,20.773,18.79z"/>
	<rect x="18.602" y="25.009" width="4.287" height="12.894"/>
</g>
</svg>
