<?xml version="1.0" encoding="utf-8"?>
<!-- Generator: Adobe Illustrator 17.0.0, SVG Export Plug-In . SVG Version: 6.00 Build 0)  -->
<!DOCTYPE svg PUBLIC "-//W3C//DTD SVG 1.1//EN" "http://www.w3.org/Graphics/SVG/1.1/DTD/svg11.dtd">
<svg version="1.1" id="Layer_1" xmlns="http://www.w3.org/2000/svg" xmlns:xlink="http://www.w3.org/1999/xlink" x="0px" y="0px"
	 width="42px" height="42px" viewBox="7.346 7.346 42 42" enable-background="new 7.346 7.346 42 42" xml:space="preserve">
<path d="M38.346,22.144c-0.735,0.327-1.527,0.547-2.357,0.646c0.848-0.507,1.498-1.311,1.804-2.27
	c-0.793,0.471-1.671,0.812-2.606,0.996c-0.748-0.797-1.815-1.296-2.995-1.296c-2.266,0-4.103,1.837-4.103,4.103
	c0,0.321,0.036,0.634,0.106,0.935c-3.41-0.171-6.434-1.805-8.458-4.287c-0.353,0.606-0.555,1.311-0.555,2.063
	c0,1.423,0.724,2.679,1.825,3.415c-0.672-0.022-1.305-0.206-1.859-0.514c0,0.017,0,0.035,0,0.052c0,1.988,1.414,3.646,3.292,4.023
	c-0.344,0.093-0.707,0.144-1.081,0.144c-0.265,0-0.522-0.026-0.772-0.074c0.523,1.63,2.038,2.817,3.833,2.85
	c-1.404,1.101-3.173,1.757-5.096,1.757c-0.331,0-0.658-0.019-0.979-0.058c1.816,1.165,3.973,1.844,6.29,1.844
	c7.548,0,11.674-6.252,11.674-11.674c0-0.178-0.004-0.355-0.011-0.531C37.101,23.69,37.797,22.967,38.346,22.144z"/>
</svg>
